<svg width="28" height="28" viewBox="0 0 28 28"  xmlns="http://www.w3.org/2000/svg">
<path d="M12.6667 0.733328V4.75999C8.14402 5.40933 4.66669 9.3 4.66669 14C4.66669 19.1547 8.84535 23.3333 14 23.3333C16.096 23.3333 18.032 22.6427 19.5894 21.4747L22.4387 24.324C20.14 26.204 17.2 27.3333 14 27.3333C6.63602 27.3333 0.666687 21.364 0.666687 14C0.666687 7.08666 5.92935 1.40133 12.6667 0.733328ZM27.2667 15.3333C27 18.0147 25.9414 20.4627 24.324 22.4373L21.4747 19.5893C22.3907 18.368 23.012 16.9147 23.2387 15.3333H27.268H27.2667ZM15.336 0.733328C21.6347 1.35866 26.6427 6.368 27.2694 12.6667H23.24C22.656 8.58 19.4227 5.34666 15.336 4.76133V0.731995V0.733328Z" />
</svg>
