<svg width="24" height="24" viewBox="0 0 30 28" fill="none" xmlns="http://www.w3.org/2000/svg">
<path d="M14 27.3333C6.63599 27.3333 0.666656 21.364 0.666656 14C0.666656 6.63599 6.63599 0.66666 14 0.66666C16.0702 0.665105 18.1122 1.14636 19.9639 2.07218C21.8155 2.99801 23.4258 4.34289 24.6667 5.99999H21.0533C19.5136 4.64234 17.6149 3.7578 15.5849 3.45253C13.555 3.14725 11.4801 3.4342 9.60917 4.27894C7.73827 5.12369 6.15085 6.49034 5.03742 8.21491C3.92398 9.93948 3.33182 11.9487 3.33199 14.0015C3.33216 16.0542 3.92465 18.0634 5.03838 19.7877C6.15211 21.5121 7.73975 22.8785 9.61079 23.7229C11.4818 24.5674 13.5568 24.854 15.5867 24.5484C17.6166 24.2428 19.5152 23.3579 21.0547 22H24.668C23.427 23.6573 21.8165 25.0023 19.9646 25.9281C18.1127 26.8539 16.0704 27.3351 14 27.3333ZM23.3333 19.3333V15.3333H12.6667V12.6667H23.3333V8.66666L30 14L23.3333 19.3333Z" fill="#333"/>
</svg>
