<svg width="300" height="150" viewBox="0 0 1030 549" fill="none" xmlns="http://www.w3.org/2000/svg">
<g clip-path="url(#clip0_150_1460)">
<path d="M48.1559 547.115L48.3695 545.989C48.4168 545.741 53.277 521.079 71.4958 506.768C89.7154 492.457 114.827 493.577 115.078 493.59L116.223 493.649L116.009 494.775C115.962 495.022 111.101 519.684 92.8827 533.995C74.6631 548.307 49.5519 547.187 49.3009 547.173L48.1559 547.115ZM72.7313 508.341C57.3271 520.441 51.7806 540.225 50.5936 545.2C55.7094 545.221 76.258 544.51 91.6472 532.422C107.035 520.335 112.593 500.542 113.785 495.564C108.666 495.542 88.1196 496.254 72.7313 508.341Z" fill="#333333"/>
<path d="M79.9766 513.829C71.6305 535.327 49.6594 546.851 49.6594 546.851C49.6594 546.851 41.22 523.521 49.5661 502.023C57.9122 480.525 79.8833 469 79.8833 469C79.8833 469 88.3227 492.331 79.9766 513.829Z" fill="#BAEDBD"/>
<path d="M999.341 547.173C999.09 547.187 973.979 548.307 955.759 533.995C937.541 519.684 932.68 495.022 932.633 494.775L932.419 493.649L933.564 493.59C933.815 493.577 958.927 492.457 977.146 506.768C995.365 521.079 1000.23 545.741 1000.27 545.989L1000.49 547.115L999.341 547.173ZM934.857 495.564C936.049 500.542 941.607 520.335 956.995 532.422C972.384 544.51 992.933 545.221 998.048 545.2C996.862 540.225 991.315 520.441 975.911 508.341C960.522 496.254 939.976 495.542 934.857 495.564Z" fill="#333333"/>
<path d="M968.665 513.829C977.012 535.327 998.983 546.851 998.983 546.851C998.983 546.851 1007.42 523.521 999.076 502.023C990.73 480.525 968.759 469 968.759 469C968.759 469 960.319 492.331 968.665 513.829Z" fill="#95A4FC"/>
<path d="M590.096 541.975L575.504 535.83L565.493 462.679H432.189L421.339 535.531L408.283 542.059C407.659 542.371 407.158 542.885 406.862 543.518C406.566 544.15 406.492 544.864 406.653 545.544C406.813 546.224 407.198 546.829 407.746 547.263C408.294 547.696 408.972 547.932 409.67 547.932H588.893C589.609 547.932 590.303 547.684 590.857 547.231C591.411 546.778 591.791 546.147 591.932 545.445C592.074 544.744 591.968 544.015 591.634 543.382C591.299 542.75 590.756 542.252 590.096 541.975Z" fill="#E6E6E6"/>
<path d="M826.988 472.411H172.158C168.723 472.404 165.43 471.033 163.004 468.601C160.577 466.169 159.214 462.874 159.214 459.438V367.098H839.932V459.438C839.932 462.874 838.569 466.169 836.142 468.601C833.716 471.033 830.423 472.404 826.988 472.411Z" fill="#CCCCCC"/>
<path d="M840.616 410.74H158.616V15.6391C158.621 11.4927 160.27 7.51755 163.202 4.58568C166.134 1.6538 170.11 0.0046475 174.256 0H824.976C829.123 0.00464478 833.098 1.65379 836.03 4.58566C838.962 7.51753 840.611 11.4927 840.616 15.6391V410.74Z" fill="#333333"/>
<path d="M799.883 382.064H199.349C196.153 382.06 193.088 380.789 190.828 378.529C188.567 376.268 187.296 373.204 187.292 370.007V40.7332C187.296 37.5365 188.567 34.4718 190.828 32.2114C193.088 29.951 196.153 28.6795 199.349 28.6758H799.883C803.08 28.6795 806.144 29.951 808.405 32.2114C810.665 34.4718 811.937 37.5365 811.94 40.7332V370.007C811.937 373.204 810.665 376.268 808.405 378.529C806.144 380.789 803.08 382.06 799.883 382.064Z" fill="white"/>
<path d="M1028.04 548.695H1.58806C1.24238 548.702 0.903992 548.595 0.625607 548.39C0.347222 548.185 0.144476 547.894 0.0489624 547.561C-0.0106681 547.335 -0.0176087 547.098 0.0286682 546.869C0.0749451 546.64 0.173202 546.424 0.315892 546.239C0.458582 546.053 0.641893 545.903 0.85172 545.8C1.06155 545.696 1.2923 545.643 1.52621 545.642H1027.91C1028.28 545.63 1028.63 545.741 1028.93 545.957C1029.22 546.174 1029.43 546.484 1029.53 546.836C1029.58 547.059 1029.58 547.291 1029.52 547.514C1029.47 547.736 1029.37 547.945 1029.23 548.123C1029.08 548.301 1028.9 548.445 1028.7 548.544C1028.49 548.643 1028.26 548.695 1028.04 548.695Z" fill="#333333"/>
<path d="M318.388 153.203H219.582V162.482H318.388V153.203Z" fill="#E5E5E5"/>
<path d="M318.388 175.706H219.582V184.985H318.388V175.706Z" fill="#E5E5E5"/>
<path d="M318.388 198.706H219.582V207.985H318.388V198.706Z" fill="#E5E5E5"/>
<path d="M318.388 221.706H219.582V230.985H318.388V221.706Z" fill="#E5E5E5"/>
<path d="M294.985 250.932H242.985V258.985H294.985V250.932Z" fill="#234DB4"/>
<path d="M472.137 210.754H471.192V213.588H472.137V210.754Z" fill="#E5E5E5"/>
<path d="M472.137 273.979H471.192V267.939H472.137V273.979ZM472.137 261.901H471.192V255.861H472.137V261.901ZM472.137 249.822H471.192V243.783H472.137V249.822ZM472.137 237.744H471.192V231.705H472.137V237.744ZM472.137 225.666H471.192V219.627H472.137V225.666Z" fill="#E5E5E5"/>
<path d="M472.137 280.018H471.192V282.852H472.137V280.018Z" fill="#E5E5E5"/>
<path d="M575.591 210.754H574.646V213.588H575.591V210.754Z" fill="#E5E5E5"/>
<path d="M575.591 273.979H574.646V267.939H575.591V273.979ZM575.591 261.901H574.646V255.861H575.591V261.901ZM575.591 249.822H574.646V243.783H575.591V249.822ZM575.591 237.744H574.646V231.705H575.591V237.744ZM575.591 225.666H574.646V219.627H575.591V225.666Z" fill="#E5E5E5"/>
<path d="M575.591 280.018H574.646V282.852H575.591V280.018Z" fill="#E5E5E5"/>
<path d="M627.776 155.306H626.831V158.14H627.776V155.306Z" fill="#E5E5E5"/>
<path d="M627.776 274.214H626.831V268.41H627.776V274.214ZM627.776 262.607H626.831V256.803H627.776V262.607ZM627.776 250.999H626.831V245.196H627.776V250.999ZM627.776 239.392H626.831V233.588H627.776V239.392ZM627.776 227.785H626.831V221.981H627.776V227.785ZM627.776 216.177H626.831V210.374H627.776V216.177ZM627.776 204.57H626.831V198.766H627.776V204.57ZM627.776 192.963H626.831V187.159H627.776V192.963ZM627.776 181.355H626.831V175.551H627.776V181.355ZM627.776 169.748H626.831V163.944H627.776V169.748Z" fill="#E5E5E5"/>
<path d="M627.776 280.018H626.831V282.852H627.776V280.018Z" fill="#E5E5E5"/>
<path d="M679.441 132.631H678.496V135.466H679.441V132.631Z" fill="#E5E5E5"/>
<path d="M679.441 274.236H678.496V268.454H679.441V274.236ZM679.441 262.672H678.496V256.889H679.441V262.672ZM679.441 251.108H678.496V245.325H679.441V251.108ZM679.441 239.543H678.496V233.761H679.441V239.543ZM679.441 227.979H678.496V222.197H679.441V227.979ZM679.441 216.415H678.496V210.633H679.441V216.415ZM679.441 204.851H678.496V199.069H679.441V204.851ZM679.441 193.287H678.496V187.504H679.441V193.287ZM679.441 181.723H678.496V175.94H679.441V181.723ZM679.441 170.158H678.496V164.376H679.441V170.158ZM679.441 158.594H678.496V152.812H679.441V158.594ZM679.441 147.03H678.496V141.248H679.441V147.03Z" fill="#E5E5E5"/>
<path d="M679.441 279.018H678.496V281.852H679.441V279.018Z" fill="#E5E5E5"/>
<path d="M524.1 172.785H523.155V175.619H524.1V172.785Z" fill="#E5E5E5"/>
<path d="M524.1 274.523H523.155V269.029H524.1V274.523ZM524.1 263.534H523.155V258.039H524.1V263.534ZM524.1 252.545H523.155V247.05H524.1V252.545ZM524.1 241.555H523.155V236.061H524.1V241.555ZM524.1 230.566H523.155V225.071H524.1V230.566ZM524.1 219.576H523.155V214.082H524.1V219.576ZM524.1 208.587H523.155V203.092H524.1V208.587ZM524.1 197.598H523.155V192.103H524.1V197.598ZM524.1 186.608H523.155V181.114H524.1V186.608Z" fill="#E5E5E5"/>
<path d="M524.1 280.018H523.155V282.852H524.1V280.018Z" fill="#E5E5E5"/>
<path d="M731.842 284.168H419.061C418.801 284.168 418.552 284.065 418.369 283.882C418.185 283.698 418.082 283.449 418.082 283.189V133.273C418.082 133.014 418.185 132.765 418.369 132.581C418.552 132.398 418.801 132.294 419.061 132.294C419.321 132.294 419.57 132.398 419.753 132.581C419.937 132.765 420.04 133.014 420.04 133.273V282.21H731.842C732.102 282.21 732.351 282.314 732.534 282.497C732.718 282.681 732.821 282.93 732.821 283.189C732.821 283.449 732.718 283.698 732.534 283.882C732.351 284.065 732.102 284.168 731.842 284.168Z" fill="#3F3D56"/>
<path d="M575.548 212.069L523.544 173.118L472.251 211.537L471.077 209.97L523.544 170.672L575.3 209.438L626.731 153.155L626.938 153.071L678.817 132.168L679.549 133.985L627.876 154.804L575.548 212.069Z" fill="#1FC198"/>
<path d="M471.664 216.627C474.908 216.627 477.538 213.997 477.538 210.754C477.538 207.51 474.908 204.88 471.664 204.88C468.421 204.88 465.791 207.51 465.791 210.754C465.791 213.997 468.421 216.627 471.664 216.627Z" fill="#1FC198"/>
<path d="M523.544 178.451C526.788 178.451 529.417 175.822 529.417 172.578C529.417 169.334 526.788 166.705 523.544 166.705C520.3 166.705 517.671 169.334 517.671 172.578C517.671 175.822 520.3 178.451 523.544 178.451Z" fill="#3AC8A4"/>
<path d="M575.424 216.627C578.667 216.627 581.297 213.997 581.297 210.754C581.297 207.51 578.667 204.88 575.424 204.88C572.18 204.88 569.551 207.51 569.551 210.754C569.551 213.997 572.18 216.627 575.424 216.627Z" fill="#1FC198"/>
<path d="M627.303 159.853C630.547 159.853 633.177 157.223 633.177 153.98C633.177 150.736 630.547 148.106 627.303 148.106C624.06 148.106 621.43 150.736 621.43 153.98C621.43 157.223 624.06 159.853 627.303 159.853Z" fill="#1FC198"/>
<path d="M679.183 138.318C682.427 138.318 685.056 135.688 685.056 132.445C685.056 129.201 682.427 126.571 679.183 126.571C675.94 126.571 673.31 129.201 673.31 132.445C673.31 135.688 675.94 138.318 679.183 138.318Z" fill="#1FC198"/>
<path d="M349.27 28.6755H347.27V382.064H349.27V28.6755Z" fill="#E5E5E5"/>
<path d="M820.769 378.447C821.46 377.625 821.962 376.661 822.24 375.624C822.518 374.587 822.565 373.501 822.378 372.444C822.191 371.386 821.774 370.383 821.158 369.504C820.541 368.625 819.739 367.891 818.808 367.356L823.69 341.713L811.169 346.931L808.453 370.482C807.657 372.105 807.484 373.964 807.966 375.706C808.449 377.449 809.555 378.953 811.073 379.935C812.591 380.917 814.417 381.308 816.204 381.034C817.991 380.759 819.615 379.839 820.769 378.447Z" fill="#FFB7B7"/>
<path d="M883.2 535.797H872.598L867.554 494.903L883.202 494.904L883.2 535.797Z" fill="#FFB7B7"/>
<path d="M885.903 546.075L851.718 546.073V545.641C851.718 542.112 853.12 538.728 855.616 536.233C858.111 533.737 861.495 532.335 865.024 532.335L885.904 532.336L885.903 546.075Z" fill="#2F2E41"/>
<path d="M825.26 535.797H814.658L809.614 494.903L825.262 494.904L825.26 535.797Z" fill="#FFB7B7"/>
<path d="M825.369 546.075L791.184 546.073V545.641C791.184 542.112 792.586 538.728 795.081 536.233C797.577 533.737 800.961 532.335 804.49 532.335L825.37 532.336L825.369 546.075Z" fill="#2F2E41"/>
<path d="M824.391 363.083L814.014 386.99L805.453 524.403L827.073 523.538L832.978 458.033L851.192 399.689L861.664 464.733L865.988 521.808L883.877 522.583L891.005 363.083H824.391Z" fill="#2F2E41"/>
<path d="M876.264 245.113L846.187 245.866L828.529 254.931L827.56 321.81L816.547 367.985C816.547 367.985 885.358 372.721 894.87 365.803L883.628 313.051L898.706 256.042L876.264 245.113Z" fill="#234DB4"/>
<path d="M831.741 255.976L828.529 254.931C828.529 254.931 818.337 261.471 819.307 277.284C819.307 277.284 818.925 285.467 819.29 290.913C819.708 297.159 807.183 359.23 807.183 359.23H825.343L833.126 303.02L831.741 255.976Z" fill="#234DB4"/>
<path d="M898.235 379.312C897.544 378.49 897.042 377.526 896.764 376.489C896.486 375.452 896.439 374.366 896.626 373.308C896.813 372.251 897.23 371.247 897.846 370.368C898.463 369.489 899.265 368.756 900.196 368.221L895.314 342.578L907.835 347.796L910.551 371.347C911.347 372.97 911.52 374.829 911.038 376.571C910.555 378.313 909.449 379.818 907.931 380.8C906.413 381.782 904.587 382.173 902.8 381.898C901.013 381.624 899.389 380.704 898.235 379.312Z" fill="#FFB7B7"/>
<path d="M894.181 256.841L897.393 255.795C897.393 255.795 907.585 262.336 906.615 278.149C906.615 278.149 906.997 286.332 906.632 291.778C906.214 298.024 911.821 360.095 911.821 360.095H893.661L885.878 303.885L894.181 256.841Z" fill="#234DB4"/>
<path d="M883.647 221.554C883.647 226.568 882.424 231.469 880.133 235.638C877.842 239.807 874.586 243.056 870.776 244.975C866.966 246.893 862.774 247.395 858.73 246.417C854.685 245.439 850.97 243.025 848.054 239.48C845.138 235.934 843.153 231.417 842.348 226.5C841.544 221.583 841.957 216.486 843.535 211.854C845.113 207.222 847.785 203.262 851.214 200.477C854.642 197.691 858.674 196.205 862.797 196.205C865.529 196.196 868.234 196.842 870.76 198.105C873.286 199.368 875.583 201.224 877.519 203.566C879.455 205.909 880.993 208.691 882.044 211.756C883.095 214.821 883.64 218.107 883.647 221.428C883.647 221.47 883.647 221.512 883.647 221.554Z" fill="#FFB7B7"/>
<path d="M842.017 190.041C844.459 183.868 849.186 185.088 853.32 187.181C858.554 185.816 863.533 181.73 869.173 184.146C874.729 193.644 893.382 190.85 889.414 206.313C889.408 210.018 895.345 207.861 894.309 213.93C897.454 225.608 882.957 247.725 874.635 243.068C876.693 238.634 881.395 228.563 874.264 227.564C858.923 244.342 872.681 195.616 853.406 209.786C847.024 216.651 838.287 196.908 842.017 190.041Z" fill="#2F2E41"/>
</g>
<defs>
<clipPath id="clip0_150_1460">
<rect width="1029.56" height="548.695" fill="white"/>
</clipPath>
</defs>
</svg>
