<svg width="105" height="40" viewBox="0 0 105 40" fill="none" xmlns="http://www.w3.org/2000/svg">
<path d="M43.339 18.0002V5.58804L48.7482 5.62835C53.8191 5.66615 54.2129 5.682 55.0422 5.8819C57.3656 6.44184 58.6533 7.17222 59.5431 8.43463C60.5153 9.81413 60.7425 12.1331 60.0611 13.7221C59.787 14.3615 58.9772 15.4498 58.2441 16.1641C57.6772 16.7165 57.0369 17.0739 56.1353 17.3412C55.8077 17.4384 55.5396 17.5502 55.5396 17.5898C55.5396 17.6294 55.8506 17.7204 56.2307 17.7919C57.1545 17.9659 58.4163 18.359 58.9062 18.6255C59.8648 19.1468 60.9129 20.727 61.1675 22.0346C61.3365 22.9023 61.2405 24.7042 60.9819 25.5191C60.388 27.3906 58.9731 28.7065 56.673 29.5269C54.5949 30.268 54.1034 30.3181 48.4146 30.3679L43.339 30.4124V18.0002ZM52.5022 24.7584C53.7636 24.2873 54.4314 22.9456 54.0679 21.6125C53.7517 20.4532 52.8503 19.8812 51.1522 19.7626L50.2018 19.6962V22.3683V25.0405L51.1312 24.9819C51.6423 24.9497 52.2593 24.8491 52.5022 24.7584ZM52.1624 15.5124C53.3443 15.1365 54.0389 13.851 53.7296 12.6123C53.4532 11.5051 52.6623 10.9849 51.1367 10.9066L50.2018 10.8586V13.2603V15.6619H50.9471C51.357 15.6619 51.9038 15.5947 52.1624 15.5124V15.5124ZM62.5365 30.219C62.5882 30.0411 65.6432 5.95204 65.6432 5.7229C65.6432 5.63119 66.441 5.60155 68.9079 5.60157L72.1725 5.60159L73.6481 10.6383C75.0606 15.4597 75.2212 15.9705 75.2906 15.8622C75.3224 15.8128 75.9266 13.8436 77.5118 8.6234L78.4302 5.59886L81.637 5.62559L84.8437 5.6523L86.1451 17.5418C86.8608 24.0811 87.4783 29.6486 87.5172 29.9141L87.5879 30.3968H84.0085H80.4291L80.3755 29.9649C80.3193 29.5123 79.5596 20.2237 79.5596 19.989C79.5596 19.7901 78.965 19.6859 78.8451 19.8637C78.7925 19.9418 77.9988 22.3431 77.0813 25.1998L75.4133 30.3938L75.0754 30.3956L74.7376 30.3974L73.0198 25.0877L71.3021 19.7781L70.9747 19.8132C70.7947 19.8325 70.6357 19.8602 70.6214 19.8748C70.5995 19.897 69.8995 27.2615 69.6912 29.6606L69.6272 30.3973H66.0561C62.6989 30.3973 62.488 30.3867 62.5365 30.2195V30.219ZM93.5712 21.6067V12.8166H91.0688H88.5664L88.1062 9.43769C87.8531 7.57932 87.6235 5.95596 87.5958 5.8302L87.5456 5.60153H96.2774H105.009V9.20905V12.8166H102.865H100.72V21.6067V30.3968H97.1456H93.5712V21.6067Z" fill="#234DB4"/>
<path d="M6.32438 39.8779C4.29562 39.45 2.38952 37.3243 0.724412 33.6327C-0.0242384 31.9729 -0.190886 31.1626 0.216439 31.1626C0.339643 31.1626 0.980598 31.75 1.64078 32.468C4.05703 35.0957 6.09568 35.4794 9.10024 33.8718C10.8311 32.9457 12.3562 31.6627 16.2525 27.8548C21.2011 23.0185 23.3927 21.5018 26.1281 21.0202C29.3685 20.4497 32.3793 22.691 35.0364 27.6518C36.218 29.8578 36.0218 30.4494 34.5818 29.0227C31.6602 26.128 29.3553 25.5882 26.0471 27.0237C23.9036 27.9539 22.1304 29.3247 17.4699 33.6546C14.0736 36.8099 12.3386 38.193 10.7298 39.0272C8.97099 39.9393 7.74116 40.1768 6.32438 39.8779ZM7.33607 29.653C7.4782 29.6135 7.67542 29.6161 7.77433 29.6589C7.87323 29.7015 7.75693 29.7338 7.51589 29.7306C7.27485 29.7277 7.19393 29.6926 7.33607 29.6531V29.653ZM3.91814 28.2424C3.73643 27.9953 3.7416 27.9898 3.97329 28.1836C4.11391 28.3011 4.22895 28.4238 4.22895 28.4561C4.22895 28.5843 4.10898 28.5018 3.91814 28.2424H3.91814ZM2.74945 26.9964C2.56773 26.7494 2.5729 26.7439 2.80461 26.9376C2.94521 27.0551 3.06026 27.1778 3.06026 27.2101C3.06026 27.3383 2.94029 27.2558 2.74945 26.9964ZM15.7698 24.874C15.7698 24.8416 15.8848 24.719 16.0254 24.6014C16.2571 24.4077 16.2623 24.4132 16.0806 24.6602C15.8898 24.9196 15.7698 25.0021 15.7698 24.874H15.7698ZM5.37025 24.3591C5.4757 24.3142 5.60171 24.3197 5.65025 24.3714C5.69878 24.4232 5.61254 24.46 5.45851 24.4532C5.28833 24.4458 5.25371 24.4088 5.37025 24.3591ZM17.0846 23.6089C17.2733 23.3948 17.4605 23.2196 17.5007 23.2196C17.5409 23.2196 17.4194 23.3948 17.2307 23.6089C17.042 23.8231 16.8547 23.9983 16.8145 23.9983C16.7743 23.9983 16.8959 23.8231 17.0846 23.6089ZM19.2759 21.6033C19.2759 21.571 19.3909 21.4483 19.5315 21.3307C19.7632 21.137 19.7684 21.1425 19.5867 21.3895C19.3958 21.649 19.2759 21.7315 19.2759 21.6033L19.2759 21.6033ZM14.1628 19.4038C14.3515 19.1896 14.5388 19.0144 14.579 19.0144C14.6192 19.0144 14.4976 19.1896 14.3089 19.4038C14.1202 19.6179 13.933 19.7931 13.8928 19.7931C13.8526 19.7931 13.9741 19.6179 14.1628 19.4038ZM34.6811 18.8197L34.1037 18.1578L34.7245 18.7735C35.3019 19.346 35.4125 19.4816 35.302 19.4816C35.2782 19.4816 34.9987 19.1838 34.6811 18.8197ZM15.7698 17.8463C15.9585 17.6321 16.1458 17.4569 16.1859 17.4569C16.2261 17.4569 16.1046 17.6321 15.9159 17.8463C15.7272 18.0604 15.5399 18.2357 15.4997 18.2357C15.4595 18.2357 15.5811 18.0604 15.7698 17.8463ZM17.742 15.8995C17.8874 15.7282 18.0392 15.588 18.0794 15.588C18.1196 15.588 18.0335 15.7282 17.888 15.8995C17.7426 16.0708 17.5908 16.211 17.5506 16.211C17.5104 16.211 17.5965 16.0708 17.742 15.8995ZM18.6915 15.0619C18.6915 15.0296 18.8066 14.9069 18.9472 14.7894C19.1789 14.5957 19.184 14.6012 19.0023 14.8482C18.8115 15.1076 18.6915 15.1901 18.6915 15.0619ZM26.4067 10.4977C26.5122 10.4527 26.6382 10.4583 26.6867 10.51C26.7353 10.5618 26.649 10.5986 26.495 10.5918C26.3248 10.5843 26.2902 10.5474 26.4067 10.4977ZM27.5754 10.4977C27.6809 10.4527 27.8069 10.4583 27.8554 10.51C27.904 10.5618 27.8177 10.5986 27.6637 10.5918C27.4935 10.5843 27.4589 10.5474 27.5754 10.4977Z" fill="#BEE2FB"/>
<path d="M7.33607 29.6531C5.90334 29.2412 4.33203 27.8202 3.17238 25.8875C2.46544 24.7093 1.21075 21.8794 1.21075 21.4632C1.21075 20.8964 1.81628 21.0763 2.3064 21.7886C2.54745 22.139 3.07481 22.7279 3.47833 23.0974C5.82345 25.2447 8.21886 25.2626 11.3557 23.1563C12.8154 22.1762 14.2855 20.888 17.2072 18.0291C21.9851 13.354 24.1059 11.7826 26.551 11.106C29.7975 10.2075 32.6844 11.7865 35.2385 15.8573C37.3487 19.2207 37.6085 20.6412 35.7821 18.8297C33.8578 16.9212 32.3438 16.1604 30.4699 16.1604C28.9922 16.1604 28.2833 16.3653 26.4107 17.3335C24.6139 18.2626 22.9716 19.5272 20.0732 22.2136C15.9681 26.0185 15.2714 26.633 14.0338 27.5409C11.2834 29.5585 9.24421 30.2016 7.33607 29.6531Z" fill="#1490D9"/>
<path d="M6.72108 18.7914C5.28835 18.3796 3.71704 16.9585 2.55739 15.0258C1.85045 13.8476 0.595764 11.0177 0.595764 10.6015C0.595764 10.0347 1.20129 10.2146 1.69141 10.9269C1.93245 11.2773 2.45982 11.8662 2.86334 12.2357C5.20846 14.383 7.60387 14.4009 10.7407 12.2946C12.2004 11.3145 13.6705 10.0264 16.5923 7.16742C21.3701 2.49232 23.4909 0.920956 25.936 0.244288C29.1825 -0.654159 32.0694 0.92476 34.6235 4.99559C36.7337 8.359 36.9935 9.77947 35.1671 7.96804C33.2428 6.05947 31.7288 5.2987 29.8549 5.2987C28.3772 5.2987 27.6683 5.50358 25.7957 6.47181C23.9989 7.40088 22.3566 8.66549 19.4582 11.3519C15.3531 15.1568 14.6564 15.7713 13.4188 16.6792C10.6684 18.6968 8.62922 19.3399 6.72108 18.7914Z" fill="#234DB4"/>
</svg>
