<svg width="22" height="18" viewBox="0 0 22 18" fill="none" xmlns="http://www.w3.org/2000/svg">
<path d="M1.22222 0H20.7778C21.1019 0 21.4128 0.105357 21.642 0.292893C21.8712 0.48043 22 0.734784 22 1V17C22 17.2652 21.8712 17.5196 21.642 17.7071C21.4128 17.8946 21.1019 18 20.7778 18H1.22222C0.898069 18 0.587192 17.8946 0.357981 17.7071C0.128769 17.5196 0 17.2652 0 17V1C0 0.734784 0.128769 0.48043 0.357981 0.292893C0.587192 0.105357 0.898069 0 1.22222 0ZM2.44444 2V16H19.5556V2H2.44444Z" fill="#09121F"/>
</svg>
