<svg width="30" height="26" viewBox="0 0 30 26" fill="none" xmlns="http://www.w3.org/2000/svg">
<path d="M23.8154 18.8953L30 24.2354L27.9568 26L21.7736 20.6587C19.4729 22.2515 16.6113 23.1179 13.6627 23.1142C6.48888 23.1142 0.666687 18.086 0.666687 11.8904C0.666687 5.69491 6.48888 0.666656 13.6627 0.666656C20.8364 0.666656 26.6586 5.69491 26.6586 11.8904C26.6628 14.437 25.6597 16.9084 23.8154 18.8953ZM20.9187 17.97C22.7513 16.3424 23.7748 14.1607 23.7706 11.8904C23.7706 7.06671 19.2466 3.16083 13.6627 3.16083C8.07727 3.16083 3.55468 7.06671 3.55468 11.8904C3.55468 16.7129 8.07727 20.6201 13.6627 20.6201C16.2913 20.6236 18.8176 19.7398 20.7021 18.1571L20.9187 17.97Z" />
<path d="M22.9427 6.94266L21.0574 5.05732L15.3334 10.78L11.3334 6.78132L3.72406 14.3907L5.60939 16.276L11.3334 10.5533L15.3334 14.552L22.9427 6.94266Z" />
</svg>
