<svg version="1.1" id="Layer_1" xmlns="http://www.w3.org/2000/svg" xmlns:xlink="http://www.w3.org/1999/xlink" x="0px" y="0px" viewBox="0 0 150 150" style="enable-background:new 0 0 150 150;" xml:space="preserve">
<style type="text/css">
	.st0{fill:none;stroke:#000000;stroke-width:5;stroke-miterlimit:10;}
	.st1{fill:none;stroke:#000000;stroke-width:5;stroke-linecap:round;stroke-miterlimit:10;}
	.st2{fill:none;stroke:#000000;stroke-width:5;stroke-linejoin:round;stroke-miterlimit:10;}
	.st3{fill:none;stroke:#000000;stroke-width:5;stroke-linecap:round;stroke-linejoin:round;stroke-miterlimit:10;}
</style>
<g>
	<path d="M42.6,79.5H22.2c-3.2,0-5.9-2.6-5.9-5.9V53.2c0-3.2,2.6-5.9,5.9-5.9h20.5c3.2,0,5.9,2.6,5.9,5.9v20.5   C48.5,76.9,45.9,79.5,42.6,79.5z M22.2,52.3c-0.5,0-0.9,0.4-0.9,0.9v20.5c0,0.5,0.4,0.9,0.9,0.9h20.5c0.5,0,0.9-0.4,0.9-0.9V53.2   c0-0.5-0.4-0.9-0.9-0.9H22.2z"/>
	<path d="M105.6,54.6H82.4c-1.4,0-2.5-1.1-2.5-2.5V40.8c0-1.4,1.1-2.5,2.5-2.5h23.3c1.4,0,2.5,1.1,2.5,2.5v11.3   C108.1,53.4,107,54.6,105.6,54.6z M84.9,49.6h18.3v-6.3H84.9V49.6z"/>
	<path d="M94,66.1H69.6c-1.4,0-2.5-1.1-2.5-2.5V52.1c0-1.4,1.1-2.5,2.5-2.5H94c1.4,0,2.5,1.1,2.5,2.5v11.5   C96.5,65,95.4,66.1,94,66.1z M72.1,61.1h19.4v-6.5H72.1V61.1z"/>
	<path d="M117.2,66H94c-1.4,0-2.5-1.1-2.5-2.5V52.1c0-1.4,1.1-2.5,2.5-2.5h23.2c1.4,0,2.5,1.1,2.5,2.5v11.5   C119.7,64.9,118.6,66,117.2,66z M96.5,61h18.2v-6.5H96.5V61z"/>
	<path d="M81.8,79.5H60.9c-1.4,0-2.5-1.1-2.5-2.5V64.5c0-1.4,1.1-2.5,2.5-2.5h20.9c1.4,0,2.5,1.1,2.5,2.5V77   C84.3,78.4,83.2,79.5,81.8,79.5z M63.4,74.5h15.9V67H63.4V74.5z"/>
	<path d="M127.1,75.1h-21.5c-1.4,0-2.5-1.1-2.5-2.5v-8.1c0-1.4,1.1-2.5,2.5-2.5h21.5c1.4,0,2.5,1.1,2.5,2.5v8.1   C129.6,74,128.4,75.1,127.1,75.1z M108.1,70.1h16.5V67h-16.5V70.1z"/>
	<path d="M112.3,109.7H32.4c-0.9,0-1.7-0.5-2.2-1.2l-16-27c-0.9-1.4-0.9-3.2,0-4.6s2.3-2.3,4-2.3h76.1l5.7-3.9   c0.4-0.3,0.9-0.4,1.4-0.4h37.9c0.9,0,1.8,0.5,2.2,1.3s0.4,1.8-0.1,2.6l-20.7,31.2C118.8,108.1,115.7,109.7,112.3,109.7z    M33.8,104.7h78.5c1.7,0,3.2-0.8,4.2-2.2l18.2-27.3h-32.4L97,78.7c-0.8,0.5-1.7,0.8-2.7,0.8H18.9L33.8,104.7z"/>
	<path d="M48.5,89.7h-0.4c-1.4,0-2.5-1.1-2.5-2.5s1.1-2.5,2.5-2.5h0.4c1.4,0,2.5,1.1,2.5,2.5S49.9,89.7,48.5,89.7z"/>
	<path d="M58.1,89.7h-0.4c-1.4,0-2.5-1.1-2.5-2.5s1.1-2.5,2.5-2.5h0.4c1.4,0,2.5,1.1,2.5,2.5S59.5,89.7,58.1,89.7z"/>
	<path d="M67.6,89.7h-0.4c-1.4,0-2.5-1.1-2.5-2.5s1.1-2.5,2.5-2.5h0.4c1.4,0,2.5,1.1,2.5,2.5S69,89.7,67.6,89.7z"/>
	<path d="M77.9,89.7h-0.4c-1.4,0-2.5-1.1-2.5-2.5s1.1-2.5,2.5-2.5h0.4c1.4,0,2.5,1.1,2.5,2.5S79.3,89.7,77.9,89.7z"/>
	<path d="M86.9,89.7h-0.4c-1.4,0-2.5-1.1-2.5-2.5s1.1-2.5,2.5-2.5h0.4c1.4,0,2.5,1.1,2.5,2.5S88.3,89.7,86.9,89.7z"/>
	<path d="M96.6,89.7h-0.4c-1.4,0-2.5-1.1-2.5-2.5s1.1-2.5,2.5-2.5h0.4c1.4,0,2.5,1.1,2.5,2.5S98,89.7,96.6,89.7z"/>
	<path d="M25.8,61.8h-0.4c-1.4,0-2.5-1.1-2.5-2.5s1.1-2.5,2.5-2.5h0.4c1.4,0,2.5,1.1,2.5,2.5S27.1,61.8,25.8,61.8z"/>
	<path d="M32.6,61.8h-0.4c-1.4,0-2.5-1.1-2.5-2.5s1.1-2.5,2.5-2.5h0.4c1.4,0,2.5,1.1,2.5,2.5S34,61.8,32.6,61.8z"/>
	<path d="M43.6,61.8h-3.4c-1.4,0-2.5-1.1-2.5-2.5s1.1-2.5,2.5-2.5h3.4c1.4,0,2.5,1.1,2.5,2.5S45,61.8,43.6,61.8z"/>
	<path d="M25.8,71.1h-0.4c-1.4,0-2.5-1.1-2.5-2.5s1.1-2.5,2.5-2.5h0.4c1.4,0,2.5,1.1,2.5,2.5S27.1,71.1,25.8,71.1z"/>
	<path d="M32.6,71.1h-0.4c-1.4,0-2.5-1.1-2.5-2.5s1.1-2.5,2.5-2.5h0.4c1.4,0,2.5,1.1,2.5,2.5S34,71.1,32.6,71.1z"/>
	<path d="M43.6,71.1h-3.4c-1.4,0-2.5-1.1-2.5-2.5s1.1-2.5,2.5-2.5h3.4c1.4,0,2.5,1.1,2.5,2.5S45,71.1,43.6,71.1z"/>
</g>
</svg>
