<svg width="13" height="9" viewBox="0 0 13 9" fill="none" xmlns="http://www.w3.org/2000/svg">
<path fill-rule="evenodd" clip-rule="evenodd" d="M12.8463 0.639307C13.0455 0.830544 13.0519 1.14706 12.8607 1.34627L9.50069 4.84627C9.40641 4.94448 9.27615 5 9.14 5C9.00385 5 8.87359 4.94448 8.77931 4.84627L6.74 2.72199L4.32335 5.23933L6.04513 6.89223L0.5 8.5L1.88019 2.8939L3.60197 4.5468L6.37931 1.65373C6.47359 1.55552 6.60385 1.5 6.74 1.5C6.87615 1.5 7.00641 1.55552 7.10069 1.65373L9.14 3.77801L12.1393 0.653735C12.3305 0.454529 12.6471 0.44807 12.8463 0.639307Z" fill="#1C1C1C"/>
</svg>
